<svg width="48" height="48" viewBox="0 0 48 48" fill="none" xmlns="http://www.w3.org/2000/svg">
<g filter="url(#filter0_d_392:1019)">
<circle cx="24" cy="20" r="20" transform="rotate(90 24 20)" fill="#6EBC67"/>
<path d="M28.875 15.0625C27.5938 13.75 25.8438 13 23.9688 13C20.1562 13 17.0312 16.125 17.0312 19.9375C17.0312 21.1875 17.375 22.375 17.9688 23.4062L17 27L20.6562 26.0625C21.6875 26.5938 22.8125 26.9062 23.9688 26.9062C27.8125 26.9062 31 23.7812 31 19.9688C31 18.0938 30.1875 16.375 28.875 15.0625ZM23.9688 25.7188C22.9375 25.7188 21.9375 25.4375 21.0312 24.9062L20.8438 24.7812L18.6562 25.375L19.25 23.25L19.0938 23.0312C18.5312 22.0938 18.2188 21.0312 18.2188 19.9375C18.2188 16.7812 20.8125 14.1875 24 14.1875C25.5312 14.1875 26.9688 14.7812 28.0625 15.875C29.1562 16.9688 29.8125 18.4062 29.8125 19.9688C29.8125 23.125 27.1562 25.7188 23.9688 25.7188ZM27.1562 21.4062C26.9688 21.3125 26.125 20.9062 25.9688 20.8438C25.8125 20.7812 25.6875 20.75 25.5625 20.9375C25.4688 21.0938 25.125 21.5 25.0312 21.625C24.9062 21.7188 24.8125 21.75 24.6562 21.6562C23.625 21.1562 22.9688 20.75 22.2812 19.5938C22.0938 19.2812 22.4688 19.3125 22.7812 18.6562C22.8438 18.5312 22.8125 18.4375 22.7812 18.3438C22.75 18.25 22.375 17.4062 22.25 17.0625C22.0938 16.7188 21.9688 16.75 21.8438 16.75C21.75 16.75 21.625 16.75 21.5312 16.75C21.4062 16.75 21.2188 16.7812 21.0625 16.9688C20.9062 17.1562 20.4688 17.5625 20.4688 18.4062C20.4688 19.2812 21.0625 20.0938 21.1562 20.2188C21.25 20.3125 22.375 22.0625 24.125 22.8125C25.2188 23.3125 25.6562 23.3438 26.2188 23.25C26.5312 23.2188 27.2188 22.8438 27.375 22.4375C27.5312 22.0312 27.5312 21.6875 27.4688 21.625C27.4375 21.5312 27.3125 21.5 27.1562 21.4062Z" fill="white"/>
</g>
<defs>
<filter id="filter0_d_392:1019" x="0" y="0" width="48" height="48" filterUnits="userSpaceOnUse" color-interpolation-filters="sRGB">
<feFlood flood-opacity="0" result="BackgroundImageFix"/>
<feColorMatrix in="SourceAlpha" type="matrix" values="0 0 0 0 0 0 0 0 0 0 0 0 0 0 0 0 0 0 127 0" result="hardAlpha"/>
<feOffset dy="4"/>
<feGaussianBlur stdDeviation="2"/>
<feColorMatrix type="matrix" values="0 0 0 0 0.129412 0 0 0 0 0.129412 0 0 0 0 0.129412 0 0 0 0.16 0"/>
<feBlend mode="normal" in2="BackgroundImageFix" result="effect1_dropShadow_392:1019"/>
<feBlend mode="normal" in="SourceGraphic" in2="effect1_dropShadow_392:1019" result="shape"/>
</filter>
</defs>
</svg>
